<mxfile host="app.diagrams.net" modified="2024-03-19T22:55:58.748Z" agent="Mozilla/5.0 (Windows NT 10.0; Win64; x64) AppleWebKit/537.36 (KHTML, like Gecko) Chrome/122.0.0.0 Safari/537.36 LikeWise/96.6.6357.60" etag="8FWQaJTANW312Pk-b5-q" version="24.0.7" type="device">
  <diagram name="Pagina-1" id="JT78xeeVSgKKCL5a0DVI">
    <mxGraphModel dx="880" dy="529" grid="1" gridSize="10" guides="1" tooltips="1" connect="1" arrows="1" fold="1" page="1" pageScale="1" pageWidth="827" pageHeight="1169" math="0" shadow="0">
      <root>
        <mxCell id="0" />
        <mxCell id="1" parent="0" />
        <mxCell id="BpzjovK7Gz4qHlLsL2lc-3" value="" style="edgeStyle=orthogonalEdgeStyle;rounded=0;orthogonalLoop=1;jettySize=auto;html=1;" parent="1" source="BpzjovK7Gz4qHlLsL2lc-1" target="BpzjovK7Gz4qHlLsL2lc-2" edge="1">
          <mxGeometry relative="1" as="geometry" />
        </mxCell>
        <mxCell id="BpzjovK7Gz4qHlLsL2lc-1" value="START" style="ellipse;whiteSpace=wrap;html=1;" parent="1" vertex="1">
          <mxGeometry x="354" y="10" width="120" height="80" as="geometry" />
        </mxCell>
        <mxCell id="BpzjovK7Gz4qHlLsL2lc-5" value="" style="edgeStyle=orthogonalEdgeStyle;rounded=0;orthogonalLoop=1;jettySize=auto;html=1;" parent="1" source="BpzjovK7Gz4qHlLsL2lc-2" target="BpzjovK7Gz4qHlLsL2lc-4" edge="1">
          <mxGeometry relative="1" as="geometry" />
        </mxCell>
        <mxCell id="BpzjovK7Gz4qHlLsL2lc-2" value="Ask the user for the number of old loaves of bread" style="whiteSpace=wrap;html=1;" parent="1" vertex="1">
          <mxGeometry x="354" y="120" width="120" height="60" as="geometry" />
        </mxCell>
        <mxCell id="BpzjovK7Gz4qHlLsL2lc-7" value="" style="edgeStyle=orthogonalEdgeStyle;rounded=0;orthogonalLoop=1;jettySize=auto;html=1;" parent="1" source="BpzjovK7Gz4qHlLsL2lc-4" target="BpzjovK7Gz4qHlLsL2lc-6" edge="1">
          <mxGeometry relative="1" as="geometry" />
        </mxCell>
        <mxCell id="BpzjovK7Gz4qHlLsL2lc-4" value="Compute total actual price by multiplying the number of loaves for 3.49 â‚¬/loave" style="whiteSpace=wrap;html=1;" parent="1" vertex="1">
          <mxGeometry x="354" y="210" width="120" height="60" as="geometry" />
        </mxCell>
        <mxCell id="BpzjovK7Gz4qHlLsL2lc-9" value="" style="edgeStyle=orthogonalEdgeStyle;rounded=0;orthogonalLoop=1;jettySize=auto;html=1;" parent="1" source="BpzjovK7Gz4qHlLsL2lc-6" target="BpzjovK7Gz4qHlLsL2lc-8" edge="1">
          <mxGeometry relative="1" as="geometry" />
        </mxCell>
        <mxCell id="BpzjovK7Gz4qHlLsL2lc-6" value="Compute discount&lt;div&gt;by multiplying regular price for 40%&lt;/div&gt;" style="whiteSpace=wrap;html=1;" parent="1" vertex="1">
          <mxGeometry x="354" y="290" width="120" height="60" as="geometry" />
        </mxCell>
        <mxCell id="-jsIwQN5Zn8WcYjPTEwF-2" value="" style="edgeStyle=orthogonalEdgeStyle;rounded=0;orthogonalLoop=1;jettySize=auto;html=1;" edge="1" parent="1" source="BpzjovK7Gz4qHlLsL2lc-8" target="-jsIwQN5Zn8WcYjPTEwF-1">
          <mxGeometry relative="1" as="geometry" />
        </mxCell>
        <mxCell id="BpzjovK7Gz4qHlLsL2lc-8" value="Compute old bread price by subtracting discount from the acutal price" style="whiteSpace=wrap;html=1;" parent="1" vertex="1">
          <mxGeometry x="354" y="380" width="120" height="70" as="geometry" />
        </mxCell>
        <mxCell id="-jsIwQN5Zn8WcYjPTEwF-4" value="" style="edgeStyle=orthogonalEdgeStyle;rounded=0;orthogonalLoop=1;jettySize=auto;html=1;" edge="1" parent="1" source="-jsIwQN5Zn8WcYjPTEwF-1" target="-jsIwQN5Zn8WcYjPTEwF-3">
          <mxGeometry relative="1" as="geometry" />
        </mxCell>
        <mxCell id="-jsIwQN5Zn8WcYjPTEwF-1" value="Print input, regular price, discount and actual price in 4 lines and with lables" style="whiteSpace=wrap;html=1;" vertex="1" parent="1">
          <mxGeometry x="354" y="480" width="120" height="60" as="geometry" />
        </mxCell>
        <mxCell id="-jsIwQN5Zn8WcYjPTEwF-3" value="END" style="whiteSpace=wrap;html=1;" vertex="1" parent="1">
          <mxGeometry x="354" y="620" width="120" height="60" as="geometry" />
        </mxCell>
      </root>
    </mxGraphModel>
  </diagram>
</mxfile>
